<?xml version="1.0"?>
<svg xmlns="http://www.w3.org/2000/svg" xmlns:xlink="http://www.w3.org/1999/xlink" xmlns:svgjs="http://svgjs.com/svgjs" version="1.1" width="512" height="512" x="0" y="0" viewBox="0 0 64 64" style="enable-background:new 0 0 512 512" xml:space="preserve" class=""><g><path xmlns="http://www.w3.org/2000/svg" d="m53 1h-42a3 3 0 0 0 -3 3v56a3 3 0 0 0 3 3h42a3 3 0 0 0 3-3v-56a3 3 0 0 0 -3-3zm1 59a1 1 0 0 1 -1 1h-42a1 1 0 0 1 -1-1v-56a1 1 0 0 1 1-1h42a1 1 0 0 1 1 1z" fill="#0e9bc8" data-original="#000000" style="" class=""/><path xmlns="http://www.w3.org/2000/svg" d="m49 5h-34a3 3 0 0 0 -3 3v8a3 3 0 0 0 3 3h34a3 3 0 0 0 3-3v-8a3 3 0 0 0 -3-3zm1 11a1 1 0 0 1 -1 1h-34a1 1 0 0 1 -1-1v-8a1 1 0 0 1 1-1h34a1 1 0 0 1 1 1z" fill="#0e9bc8" data-original="#000000" style="" class=""/><path xmlns="http://www.w3.org/2000/svg" d="m37 21h-10a1 1 0 0 0 -1 1v9a1 1 0 0 0 1 1h10a1 1 0 0 0 1-1v-9a1 1 0 0 0 -1-1zm-1 9h-8v-7h8z" fill="#0e9bc8" data-original="#000000" style="" class=""/><path xmlns="http://www.w3.org/2000/svg" d="m51 21h-10a1 1 0 0 0 -1 1v9a1 1 0 0 0 1 1h10a1 1 0 0 0 1-1v-9a1 1 0 0 0 -1-1zm-1 9h-8v-7h8z" fill="#0e9bc8" data-original="#000000" style="" class=""/><path xmlns="http://www.w3.org/2000/svg" d="m23 21h-10a1 1 0 0 0 -1 1v9a1 1 0 0 0 1 1h10a1 1 0 0 0 1-1v-9a1 1 0 0 0 -1-1zm-1 9h-8v-7h8z" fill="#0e9bc8" data-original="#000000" style="" class=""/><path xmlns="http://www.w3.org/2000/svg" d="m37 34h-10a1 1 0 0 0 -1 1v9a1 1 0 0 0 1 1h10a1 1 0 0 0 1-1v-9a1 1 0 0 0 -1-1zm-1 9h-8v-7h8z" fill="#0e9bc8" data-original="#000000" style="" class=""/><path xmlns="http://www.w3.org/2000/svg" d="m23 34h-10a1 1 0 0 0 -1 1v9a1 1 0 0 0 1 1h10a1 1 0 0 0 1-1v-9a1 1 0 0 0 -1-1zm-1 9h-8v-7h8z" fill="#0e9bc8" data-original="#000000" style="" class=""/><path xmlns="http://www.w3.org/2000/svg" d="m37 47h-10a1 1 0 0 0 -1 1v9a1 1 0 0 0 1 1h10a1 1 0 0 0 1-1v-9a1 1 0 0 0 -1-1zm-1 9h-8v-7h8z" fill="#0e9bc8" data-original="#000000" style="" class=""/><path xmlns="http://www.w3.org/2000/svg" d="m51 34h-10a1 1 0 0 0 -1 1v22a1 1 0 0 0 1 1h10a1 1 0 0 0 1-1v-22a1 1 0 0 0 -1-1zm-1 22h-8v-20h8z" fill="#0e9bc8" data-original="#000000" style="" class=""/><path xmlns="http://www.w3.org/2000/svg" d="m23 47h-10a1 1 0 0 0 -1 1v9a1 1 0 0 0 1 1h10a1 1 0 0 0 1-1v-9a1 1 0 0 0 -1-1zm-1 9h-8v-7h8z" fill="#0e9bc8" data-original="#000000" style="" class=""/></g></svg>
