<?xml version="1.0" encoding="utf-8"?>
<!-- Generator: Adobe Illustrator 22.1.0, SVG Export Plug-In . SVG Version: 6.00 Build 0)  -->
<svg version="1.1" id="Layer_1" xmlns:svgjs="http://svgjs.com/svgjs"
	 xmlns="http://www.w3.org/2000/svg" xmlns:xlink="http://www.w3.org/1999/xlink" x="0px" y="0px" viewBox="0 0 512 512"
	 style="enable-background:new 0 0 512 512;" xml:space="preserve">
<style type="text/css">
	.st0{fill:#0E9BC8;}
</style>
<g>
	<g>
		<g>
			<path class="st0" d="M470.7,33H322.1V16.5c0-9.1-7.4-16.5-16.5-16.5h-99.1c-9.1,0-16.5,7.4-16.5,16.5V33H41.3
				c-9.1,0-16.5,7.4-16.5,16.5v297.3c0,9.1,7.4,16.5,16.5,16.5h125.4L46.1,483.8L69.4,507l143.9-143.7h26.3V512h33V363.4h26.3
				l143.9,143.9l23.3-23.3L345.4,363.4h125.4c9.1,0,16.5-7.4,16.5-16.5V49.5C487.2,40.4,479.8,33,470.7,33z M454.2,330.3H57.8V66.1
				h396.4V330.3z"/>
		</g>
	</g>
</g>
<g>
	<g>
		<path class="st0" d="M286.1,184.1c-8.5-4.7-17.5-8.3-26.4-12c-5.2-2.1-10.1-4.6-14.5-8.1c-8.6-6.9-7-18,3.1-22.5
			c2.9-1.3,5.8-1.7,8.9-1.8c11.7-0.6,22.8,1.5,33.4,6.6c5.3,2.5,7,1.7,8.8-3.8c1.9-5.8,3.4-11.7,5.2-17.5c1.2-3.9-0.3-6.5-4-8.2
			c-6.8-3-13.8-5.1-21.1-6.3c-9.6-1.5-9.6-1.5-9.6-11.1c0-13.5,0-13.5-13.6-13.5c-2,0-3.9,0-5.9,0c-6.3,0.2-7.4,1.3-7.6,7.7
			c-0.1,2.9,0,5.7,0,8.6c0,8.5-0.1,8.3-8.2,11.3c-19.6,7.1-31.8,20.5-33.1,42c-1.2,19,8.8,31.8,24.3,41.1
			c9.6,5.8,20.2,9.2,30.4,13.7c4,1.7,7.8,3.7,11.1,6.5c9.8,8.1,8,21.5-3.6,26.6c-6.2,2.7-12.8,3.4-19.5,2.5
			c-10.4-1.3-20.4-4-29.7-8.9c-5.5-2.9-7.1-2.1-9,3.8c-1.6,5.1-3,10.3-4.5,15.5c-1.9,7-1.2,8.6,5.4,11.9c8.5,4.1,17.5,6.2,26.8,7.7
			c7.2,1.2,7.5,1.5,7.5,9c0,3.4,0,6.8,0.1,10.2c0,4.3,2.1,6.8,6.5,6.9c5,0.1,10,0.1,15,0c4.1-0.1,6.2-2.3,6.2-6.5
			c0-4.6,0.2-9.3,0-14c-0.2-4.7,1.8-7.1,6.4-8.4c10.5-2.9,19.4-8.5,26.3-16.9C320.4,233,313.1,199.1,286.1,184.1z"/>
	</g>
</g>
</svg>
