<?xml version="1.0" encoding="utf-8"?>
<!-- Generator: Adobe Illustrator 22.1.0, SVG Export Plug-In . SVG Version: 6.00 Build 0)  -->
<svg version="1.1" id="Layer_1" xmlns:svgjs="http://svgjs.com/svgjs"
	 xmlns="http://www.w3.org/2000/svg" xmlns:xlink="http://www.w3.org/1999/xlink" x="0px" y="0px" viewBox="0 0 512 512"
	 style="enable-background:new 0 0 512 512;" xml:space="preserve">
<style type="text/css">
	.st0{fill:#0E9BC8;}
</style>
<g>
	<g>
		<g>
			<path class="st0" d="M470.7,33H322.1V16.5c0-9.1-7.4-16.5-16.5-16.5h-99.1c-9.1,0-16.5,7.4-16.5,16.5V33H41.3
				c-9.1,0-16.5,7.4-16.5,16.5v297.3c0,9.1,7.4,16.5,16.5,16.5h125.4L46.1,483.8L69.4,507l143.9-143.7h26.3V512h33V363.4h26.3
				l143.9,143.9l23.3-23.3L345.4,363.4h125.4c9.1,0,16.5-7.4,16.5-16.5V49.5C487.2,40.4,479.8,33,470.7,33z M454.2,330.3H57.8V66.1
				h396.4V330.3z"/>
		</g>
	</g>
</g>
<path class="st0" d="M125.1,307.7c4,0,7.9-1.6,10.7-4.4l85-85l34.6,34.6c5.9,5.9,15.5,5.9,21.4,0c0,0,0,0,0,0l95-95l0,34
	c0,8.3,6.8,15.1,15.1,15.1s15.1-6.8,15.1-15.1l0-70.5c0-8.3-6.8-15.1-15.1-15.1h-70.5c-8.3,0-15.1,6.8-15.1,15.1s6.8,15.1,15.1,15.1
	h34l-84.4,84.4l-34.6-34.6c-5.9-5.9-15.5-5.9-21.4,0c0,0,0,0,0,0l-95.7,95.7c-5.9,5.9-5.9,15.5,0,21.4
	C117.3,306.1,121.1,307.7,125.1,307.7z"/>
</svg>
