<svg xmlns="http://www.w3.org/2000/svg" width="27.001" height="110" viewBox="0 0 27.001 110"><path id="about_dot_shape" d="M-56.514-10120.285a1.271,1.271,0,0,1,1.258-1.285,1.271,1.271,0,0,1,1.256,1.285,1.272,1.272,0,0,1-1.256,1.286A1.273,1.273,0,0,1-56.514-10120.285Zm-11.943,0a1.271,1.271,0,0,1,1.258-1.285,1.27,1.27,0,0,1,1.256,1.285A1.271,1.271,0,0,1-67.2-10119,1.273,1.273,0,0,1-68.458-10120.285Zm-11.942,0a1.27,1.27,0,0,1,1.256-1.285,1.27,1.27,0,0,1,1.256,1.285,1.271,1.271,0,0,1-1.256,1.286A1.271,1.271,0,0,1-80.4-10120.285Zm-11.943,0a1.27,1.27,0,0,1,1.256-1.285,1.271,1.271,0,0,1,1.258,1.285,1.273,1.273,0,0,1-1.258,1.286A1.271,1.271,0,0,1-92.342-10120.285Zm-11.943,0a1.271,1.271,0,0,1,1.256-1.285,1.271,1.271,0,0,1,1.258,1.285,1.273,1.273,0,0,1-1.258,1.286A1.272,1.272,0,0,1-104.286-10120.285Zm-11.943,0a1.271,1.271,0,0,1,1.258-1.285,1.271,1.271,0,0,1,1.256,1.285,1.272,1.272,0,0,1-1.256,1.286A1.273,1.273,0,0,1-116.229-10120.285Zm-11.943,0a1.271,1.271,0,0,1,1.258-1.285,1.27,1.27,0,0,1,1.256,1.285,1.271,1.271,0,0,1-1.256,1.286A1.273,1.273,0,0,1-128.172-10120.285Zm-11.942,0a1.27,1.27,0,0,1,1.256-1.285,1.271,1.271,0,0,1,1.258,1.285,1.273,1.273,0,0,1-1.258,1.286A1.271,1.271,0,0,1-140.114-10120.285Zm-11.943,0a1.271,1.271,0,0,1,1.256-1.285,1.271,1.271,0,0,1,1.258,1.285A1.273,1.273,0,0,1-150.8-10119,1.272,1.272,0,0,1-152.057-10120.285Zm-11.943,0a1.271,1.271,0,0,1,1.258-1.285,1.271,1.271,0,0,1,1.256,1.285,1.272,1.272,0,0,1-1.256,1.286A1.273,1.273,0,0,1-164-10120.285Zm107.486-12.215a1.272,1.272,0,0,1,1.258-1.285A1.272,1.272,0,0,1-54-10132.5a1.272,1.272,0,0,1-1.256,1.286A1.272,1.272,0,0,1-56.514-10132.5Zm-11.943,0a1.272,1.272,0,0,1,1.258-1.285,1.271,1.271,0,0,1,1.256,1.285,1.271,1.271,0,0,1-1.256,1.286A1.272,1.272,0,0,1-68.458-10132.5Zm-11.942,0a1.271,1.271,0,0,1,1.256-1.285,1.271,1.271,0,0,1,1.256,1.285,1.271,1.271,0,0,1-1.256,1.286A1.271,1.271,0,0,1-80.4-10132.5Zm-11.943,0a1.271,1.271,0,0,1,1.256-1.285,1.272,1.272,0,0,1,1.258,1.285,1.272,1.272,0,0,1-1.258,1.286A1.271,1.271,0,0,1-92.342-10132.5Zm-11.943,0a1.272,1.272,0,0,1,1.256-1.285,1.272,1.272,0,0,1,1.258,1.285,1.272,1.272,0,0,1-1.258,1.286A1.272,1.272,0,0,1-104.286-10132.5Zm-11.943,0a1.272,1.272,0,0,1,1.258-1.285,1.272,1.272,0,0,1,1.256,1.285,1.272,1.272,0,0,1-1.256,1.286A1.272,1.272,0,0,1-116.229-10132.5Zm-11.943,0a1.272,1.272,0,0,1,1.258-1.285,1.271,1.271,0,0,1,1.256,1.285,1.271,1.271,0,0,1-1.256,1.286A1.272,1.272,0,0,1-128.172-10132.5Zm-11.942,0a1.271,1.271,0,0,1,1.256-1.285,1.272,1.272,0,0,1,1.258,1.285,1.272,1.272,0,0,1-1.258,1.286A1.271,1.271,0,0,1-140.114-10132.5Zm-11.943,0a1.272,1.272,0,0,1,1.256-1.285,1.272,1.272,0,0,1,1.258,1.285,1.272,1.272,0,0,1-1.258,1.286A1.272,1.272,0,0,1-152.057-10132.5Zm-11.943,0a1.272,1.272,0,0,1,1.258-1.285,1.272,1.272,0,0,1,1.256,1.285,1.272,1.272,0,0,1-1.256,1.286A1.272,1.272,0,0,1-164-10132.5Zm107.486-12.213a1.273,1.273,0,0,1,1.258-1.287,1.273,1.273,0,0,1,1.256,1.287,1.273,1.273,0,0,1-1.256,1.285A1.273,1.273,0,0,1-56.514-10144.713Zm-11.943,0A1.273,1.273,0,0,1-67.2-10146a1.272,1.272,0,0,1,1.256,1.287,1.272,1.272,0,0,1-1.256,1.285A1.273,1.273,0,0,1-68.458-10144.713Zm-11.942,0a1.272,1.272,0,0,1,1.256-1.287,1.272,1.272,0,0,1,1.256,1.287,1.272,1.272,0,0,1-1.256,1.285A1.272,1.272,0,0,1-80.4-10144.713Zm-11.943,0a1.272,1.272,0,0,1,1.256-1.287,1.273,1.273,0,0,1,1.258,1.287,1.273,1.273,0,0,1-1.258,1.285A1.272,1.272,0,0,1-92.342-10144.713Zm-11.943,0a1.273,1.273,0,0,1,1.256-1.287,1.273,1.273,0,0,1,1.258,1.287,1.273,1.273,0,0,1-1.258,1.285A1.273,1.273,0,0,1-104.286-10144.713Zm-11.943,0a1.273,1.273,0,0,1,1.258-1.287,1.273,1.273,0,0,1,1.256,1.287,1.273,1.273,0,0,1-1.256,1.285A1.273,1.273,0,0,1-116.229-10144.713Zm-11.943,0a1.273,1.273,0,0,1,1.258-1.287,1.272,1.272,0,0,1,1.256,1.287,1.272,1.272,0,0,1-1.256,1.285A1.273,1.273,0,0,1-128.172-10144.713Zm-11.942,0a1.272,1.272,0,0,1,1.256-1.287,1.273,1.273,0,0,1,1.258,1.287,1.273,1.273,0,0,1-1.258,1.285A1.272,1.272,0,0,1-140.114-10144.713Zm-11.943,0A1.273,1.273,0,0,1-150.8-10146a1.273,1.273,0,0,1,1.258,1.287,1.273,1.273,0,0,1-1.258,1.285A1.273,1.273,0,0,1-152.057-10144.713Zm-11.943,0a1.273,1.273,0,0,1,1.258-1.287,1.273,1.273,0,0,1,1.256,1.287,1.273,1.273,0,0,1-1.256,1.285A1.273,1.273,0,0,1-164-10144.713Z" transform="translate(-10118.999 164) rotate(90)" fill="#002c47"></path></svg>