<svg xmlns="http://www.w3.org/2000/svg" width="322.374" height="176" viewBox="0 0 322.374 176"><path id="calc_bg_shape1" d="M173.163,228.774c-4.814-17.531-14.99-32.7-22.625-49-4.294-9.169-8.889-17.88-11.352-27.707-3.213-12.825-3.963-24.765-4.355-37.841-.41-13.613-1.854-27.219-2.246-40.877a71.582,71.582,0,0,0-4.657-24.064c-8.519-22.32-28.428-34.4-50.5-40.624C51.971,1.48,25.842-1.644,0,.846V322.374H158.778c8.557-13.98,14.33-29.731,15.908-45.568C176.175,261.872,177.2,243.475,173.163,228.774Z" transform="translate(322.374) rotate(90)" fill="#002c47" opacity="0.02"></path></svg>