<svg xmlns="http://www.w3.org/2000/svg" width="944.43" height="515.611" viewBox="0 0 944.43 515.611"><path id="calc_bg_shape2" d="M507.3,670.217c-14.1-51.359-43.915-95.792-66.282-143.544-12.581-26.86-26.041-52.383-33.256-81.172C398.35,407.93,396.152,372.949,395,334.643c-1.2-39.881-5.431-79.742-6.579-119.753-.721-24.742-4.834-47.424-13.643-70.5C349.823,79,291.5,43.606,226.836,25.377,152.256,4.335,75.708-4.815,0,2.479V944.43H465.157c25.07-40.956,41.98-87.1,46.6-133.5C516.123,767.184,519.12,713.286,507.3,670.217Z" transform="translate(0 515.611) rotate(-90)" fill="#002c47" opacity="0.02"></path></svg>