<svg xmlns="http://www.w3.org/2000/svg" width="14.59" height="19.5" viewBox="0 0 14.59 19.5"><g id="chart_icon2" transform="translate(-104.705 -276.25)"><path id="Path_18625" data-name="Path 18625" d="M114.455,278.636h2.454a1.641,1.641,0,0,1,1.636,1.637v13.091A1.641,1.641,0,0,1,116.909,295h-9.818a1.641,1.641,0,0,1-1.636-1.636V280.273a1.641,1.641,0,0,1,1.636-1.637h2.454" fill="none" stroke="#0ac668" stroke-linecap="round" stroke-linejoin="round" stroke-width="1.5"></path><path id="Path_18626" data-name="Path 18626" d="M108.727,287.972l2.119,2.119,4.426-4.435" fill="none" stroke="#0ac668" stroke-linecap="round" stroke-linejoin="round" stroke-width="1.5"></path><path id="Rectangle_7502" data-name="Rectangle 7502" d="M1.636,0H3.273A1.636,1.636,0,0,1,4.909,1.636V3.273a0,0,0,0,1,0,0H0a0,0,0,0,1,0,0V1.636A1.636,1.636,0,0,1,1.636,0Z" transform="translate(109.545 277)" fill="none" stroke="#0ac668" stroke-linecap="round" stroke-linejoin="round" stroke-width="1.5"></path></g></svg>