<svg xmlns="http://www.w3.org/2000/svg" width="90.06" height="115.555" viewBox="0 0 90.06 115.555"><g id="cta_arrow" transform="matrix(-0.208, -0.978, 0.978, -0.208, 24.064, 118.13)"><path id="Path_18658" data-name="Path 18658" d="M.729,53.932l1.385.184c.908.107,2.211.341,3.939.476,1.717.193,3.8.306,6.18.435l3.8.06c1.338-.041,2.748-.051,4.215-.122,2.933-.159,6.115-.378,9.447-.889a105.521,105.521,0,0,0,10.4-2.014,109.571,109.571,0,0,0,10.871-3.25,106.426,106.426,0,0,0,10.844-4.5,105.433,105.433,0,0,0,10.306-5.678,99.586,99.586,0,0,0,9.336-6.574c1.436-1.172,2.856-2.318,4.17-3.527,1.348-1.172,2.607-2.383,3.827-3.567s2.32-2.422,3.43-3.574c1.06-1.2,2.076-2.364,3.009-3.516.907-1.174,1.83-2.256,2.6-3.367s1.538-2.136,2.2-3.141l1.8-2.847c.538-.891.987-1.738,1.415-2.485s.8-1.424,1.081-2.031l.746-1.528.607-1.276a.842.842,0,0,0-1.44-.859l-.02.028L104.064,1.5c-.544.726-1.27,1.833-2.3,3.17L100.107,6.9,98.084,9.471c-1.447,1.83-3.149,3.835-5.034,5.989-.95,1.071-1.99,2.14-3.017,3.292-1.089,1.092-2.166,2.27-3.362,3.392-2.314,2.323-4.91,4.61-7.649,6.913-.685.575-1.4,1.123-2.11,1.693s-1.428,1.135-2.177,1.673l-2.229,1.664L70.2,35.7a110.087,110.087,0,0,1-9.75,5.946,103.693,103.693,0,0,1-10.339,4.915A93.664,93.664,0,0,1,39.6,50.152c-.865.258-1.731.482-2.594.682l-2.561.615c-1.706.326-3.367.7-5.007.923-3.264.556-6.387.823-9.269,1.027-1.442.081-2.828.087-4.144.131l-3.739-.052L9.006,53.29c-1.014-.059-1.93-.194-2.766-.273-1.661-.153-2.992-.393-3.889-.529L.972,52.269a.84.84,0,0,0-.263,1.66Z" transform="translate(0 12.383)" fill="#0ac668"></path><path id="Path_18659" data-name="Path 18659" d="M17.146,22.2c-.116-.867-.173-1.723-.235-2.566-.039-.855-.052-1.711-.055-2.568a43.735,43.735,0,0,1,.325-5.122c.107-.849.244-1.693.387-2.535s.344-1.674.537-2.5c.412-1.656.911-3.285,1.464-4.887A1.521,1.521,0,0,0,17.637.082L17.4.163,15.217.91c-.724.257-1.456.491-2.175.756s-1.447.507-2.165.773l-2.155.793c-1.436.531-2.85,1.12-4.244,1.778a29.154,29.154,0,0,0-4.1,2.3A.939.939,0,0,0,.157,8.578a.92.92,0,0,0,.708.428H.882a20.456,20.456,0,0,0,2.4-.23c.781-.123,1.563-.273,2.328-.452a34.493,34.493,0,0,0,4.5-1.366c1.463-.556,2.916-1.147,4.34-1.8s2.829-1.349,4.213-2.082L16.494,1.224c-.156.879-.291,1.76-.412,2.641s-.209,1.765-.3,2.647-.153,1.764-.225,2.643-.114,1.761-.157,2.641-.066,1.759-.086,2.638L15.3,17.069c.005.879-.051,1.756-.018,2.634l.027,2.626v.017a.907.907,0,0,0,.958.806.876.876,0,0,0,.847-.875C17.11,22.252,17.149,22.225,17.146,22.2Z" transform="translate(96.092 0)" fill="#0ac668"></path></g></svg>