<svg xmlns="http://www.w3.org/2000/svg" id="feature_icon3" width="32" height="32" viewBox="0 0 32 32"><rect id="Rectangle_7517" data-name="Rectangle 7517" width="30" height="22" rx="1" transform="translate(1 3)" fill="none" stroke="#0ac668" stroke-linejoin="round" stroke-width="2"></rect><rect id="Rectangle_7518" data-name="Rectangle 7518" width="6" height="2" transform="translate(13 1)" fill="none" stroke="#0ac668" stroke-linejoin="round" stroke-width="2"></rect><line id="Line_33" data-name="Line 33" y2="7" transform="translate(16 25)" fill="none" stroke="#0ac668" stroke-linejoin="round" stroke-width="2"></line><line id="Line_34" data-name="Line 34" x1="6" y2="6" transform="translate(5 25)" fill="none" stroke="#0ac668" stroke-linejoin="round" stroke-width="2"></line><line id="Line_35" data-name="Line 35" x2="6" y2="6" transform="translate(21 25)" fill="none" stroke="#0ac668" stroke-linejoin="round" stroke-width="2"></line><path id="Path_18634" data-name="Path 18634" d="M16,14H14a2,2,0,0,1-2-2h0a2,2,0,0,1,2-2h4a2,2,0,0,1,2,2h0" fill="none" stroke="#0ac668" stroke-linejoin="round" stroke-width="2"></path><path id="Path_18635" data-name="Path 18635" d="M16,14h2a2,2,0,0,1,2,2h0a2,2,0,0,1-2,2H14a2,2,0,0,1-2-2h0" fill="none" stroke="#0ac668" stroke-linejoin="round" stroke-width="2"></path><line id="Line_36" data-name="Line 36" y1="3" transform="translate(16 7)" fill="none" stroke="#0ac668" stroke-linejoin="round" stroke-width="2"></line><line id="Line_37" data-name="Line 37" y1="3" transform="translate(16 18)" fill="none" stroke="#0ac668" stroke-linejoin="round" stroke-width="2"></line></svg>