<svg xmlns="http://www.w3.org/2000/svg" width="175" height="42.001" viewBox="0 0 175 42.001"><path id="feature_dot_shape1" d="M7-10106a2,2,0,0,1,2-2,2,2,0,0,1,2,2,2,2,0,0,1-2,2A2,2,0,0,1,7-10106Zm-19,0a2,2,0,0,1,2-2,2,2,0,0,1,2,2,2,2,0,0,1-2,2A2,2,0,0,1-12-10106Zm-19,0a2,2,0,0,1,2-2,2,2,0,0,1,2,2,2,2,0,0,1-2,2A2,2,0,0,1-31-10106Zm-19,0a2,2,0,0,1,2-2,2,2,0,0,1,2,2,2,2,0,0,1-2,2A2,2,0,0,1-50-10106Zm-19,0a2,2,0,0,1,2-2,2,2,0,0,1,2,2,2,2,0,0,1-2,2A2,2,0,0,1-69-10106Zm-19,0a2,2,0,0,1,2-2,2,2,0,0,1,2,2,2,2,0,0,1-2,2A2,2,0,0,1-88-10106Zm-19,0a2,2,0,0,1,2-2,2,2,0,0,1,2,2,2,2,0,0,1-2,2A2,2,0,0,1-107-10106Zm-19,0a2,2,0,0,1,2-2,2,2,0,0,1,2,2,2,2,0,0,1-2,2A2,2,0,0,1-126-10106Zm-19,0a2,2,0,0,1,2-2,2,2,0,0,1,2,2,2,2,0,0,1-2,2A2,2,0,0,1-145-10106Zm-19,0a2,2,0,0,1,2-2,2,2,0,0,1,2,2,2,2,0,0,1-2,2A2,2,0,0,1-164-10106Zm171-19a2,2,0,0,1,2-2,2,2,0,0,1,2,2,2,2,0,0,1-2,2A2,2,0,0,1,7-10125Zm-19,0a2,2,0,0,1,2-2,2,2,0,0,1,2,2,2,2,0,0,1-2,2A2,2,0,0,1-12-10125Zm-19,0a2,2,0,0,1,2-2,2,2,0,0,1,2,2,2,2,0,0,1-2,2A2,2,0,0,1-31-10125Zm-19,0a2,2,0,0,1,2-2,2,2,0,0,1,2,2,2,2,0,0,1-2,2A2,2,0,0,1-50-10125Zm-19,0a2,2,0,0,1,2-2,2,2,0,0,1,2,2,2,2,0,0,1-2,2A2,2,0,0,1-69-10125Zm-19,0a2,2,0,0,1,2-2,2,2,0,0,1,2,2,2,2,0,0,1-2,2A2,2,0,0,1-88-10125Zm-19,0a2,2,0,0,1,2-2,2,2,0,0,1,2,2,2,2,0,0,1-2,2A2,2,0,0,1-107-10125Zm-19,0a2,2,0,0,1,2-2,2,2,0,0,1,2,2,2,2,0,0,1-2,2A2,2,0,0,1-126-10125Zm-19,0a2,2,0,0,1,2-2,2,2,0,0,1,2,2,2,2,0,0,1-2,2A2,2,0,0,1-145-10125Zm-19,0a2,2,0,0,1,2-2,2,2,0,0,1,2,2,2,2,0,0,1-2,2A2,2,0,0,1-164-10125Zm171-19a2,2,0,0,1,2-2,2,2,0,0,1,2,2,2,2,0,0,1-2,2A2,2,0,0,1,7-10144Zm-19,0a2,2,0,0,1,2-2,2,2,0,0,1,2,2,2,2,0,0,1-2,2A2,2,0,0,1-12-10144Zm-19,0a2,2,0,0,1,2-2,2,2,0,0,1,2,2,2,2,0,0,1-2,2A2,2,0,0,1-31-10144Zm-19,0a2,2,0,0,1,2-2,2,2,0,0,1,2,2,2,2,0,0,1-2,2A2,2,0,0,1-50-10144Zm-19,0a2,2,0,0,1,2-2,2,2,0,0,1,2,2,2,2,0,0,1-2,2A2,2,0,0,1-69-10144Zm-19,0a2,2,0,0,1,2-2,2,2,0,0,1,2,2,2,2,0,0,1-2,2A2,2,0,0,1-88-10144Zm-19,0a2,2,0,0,1,2-2,2,2,0,0,1,2,2,2,2,0,0,1-2,2A2,2,0,0,1-107-10144Zm-19,0a2,2,0,0,1,2-2,2,2,0,0,1,2,2,2,2,0,0,1-2,2A2,2,0,0,1-126-10144Zm-19,0a2,2,0,0,1,2-2,2,2,0,0,1,2,2,2,2,0,0,1-2,2A2,2,0,0,1-145-10144Zm-19,0a2,2,0,0,1,2-2,2,2,0,0,1,2,2,2,2,0,0,1-2,2A2,2,0,0,1-164-10144Z" transform="translate(164 10146)" fill="#002c47"></path></svg>