<svg xmlns="http://www.w3.org/2000/svg" width="28" height="32" viewBox="0 0 28 32"><g id="feature_icon1" transform="translate(-2)"><path id="Path_18631" data-name="Path 18631" d="M23,31H3l2-6V13A4,4,0,0,1,9,9h2l1-2L9,1H23L20,7l1,2h2a4,4,0,0,1,4,4V25l2,6Z" fill="none" stroke="#0ac668" stroke-linejoin="round" stroke-width="2"></path><line id="Line_21" data-name="Line 21" x2="8" transform="translate(12 7)" fill="none" stroke="#0ac668" stroke-linejoin="round" stroke-width="2"></line><path id="Path_18632" data-name="Path 18632" d="M16,19H14a2,2,0,0,1-2-2h0a2,2,0,0,1,2-2h4a2,2,0,0,1,2,2h0" fill="none" stroke="#0ac668" stroke-linejoin="round" stroke-width="2"></path><path id="Path_18633" data-name="Path 18633" d="M16,19h2a2,2,0,0,1,2,2h0a2,2,0,0,1-2,2H14a2,2,0,0,1-2-2h0" fill="none" stroke="#0ac668" stroke-linejoin="round" stroke-width="2"></path><line id="Line_22" data-name="Line 22" y1="3" transform="translate(16 12)" fill="none" stroke="#0ac668" stroke-linejoin="round" stroke-width="2"></line><line id="Line_23" data-name="Line 23" y1="3" transform="translate(16 23)" fill="none" stroke="#0ac668" stroke-linejoin="round" stroke-width="2"></line></g></svg>