<svg xmlns="http://www.w3.org/2000/svg" id="feature_icon4" width="32" height="32" viewBox="0 0 32 32"><rect id="Rectangle_7519" data-name="Rectangle 7519" width="16" height="4" transform="translate(8 27)" fill="none" stroke="#0ac668" stroke-linejoin="round" stroke-width="2"></rect><line id="Line_38" data-name="Line 38" x2="24" transform="translate(4 31)" fill="none" stroke="#0ac668" stroke-linejoin="round" stroke-width="2"></line><line id="Line_39" data-name="Line 39" y1="27" transform="translate(16)" fill="none" stroke="#0ac668" stroke-linejoin="round" stroke-width="2"></line><line id="Line_40" data-name="Line 40" x2="32" transform="translate(0 5)" fill="none" stroke="#0ac668" stroke-linejoin="round" stroke-width="2"></line><path id="Path_18636" data-name="Path 18636" d="M7,5,4,13v2" fill="none" stroke="#0ac668" stroke-linejoin="round" stroke-width="2"></path><path id="Path_18637" data-name="Path 18637" d="M7,5l3,8v2" fill="none" stroke="#0ac668" stroke-linejoin="round" stroke-width="2"></path><path id="Path_18638" data-name="Path 18638" d="M11,22H3a1,1,0,0,1-1-1V15H12v6A1,1,0,0,1,11,22Z" fill="none" stroke="#0ac668" stroke-linejoin="round" stroke-width="2"></path><path id="Path_18639" data-name="Path 18639" d="M29,22H21a1,1,0,0,1-1-1V15H30v6A1,1,0,0,1,29,22Z" fill="none" stroke="#0ac668" stroke-linejoin="round" stroke-width="2"></path><path id="Path_18640" data-name="Path 18640" d="M25,5l-3,8v2" fill="none" stroke="#0ac668" stroke-linejoin="round" stroke-width="2"></path><path id="Path_18641" data-name="Path 18641" d="M25,5l3,8v2" fill="none" stroke="#0ac668" stroke-linejoin="round" stroke-width="2"></path></svg>