<svg xmlns="http://www.w3.org/2000/svg" width="181.801" height="205.809" viewBox="0 0 181.801 205.809"><g id="feature_shape" transform="translate(-2154.099 7004.1) rotate(95)"><path id="blob" d="M-324.979,127.489c18.538-15.5,18.538-87.186-23.4-106.057-8.5-3.824-18.729-4.191-26.261-9.868C-377.953,9.071-377.6,2-379.693-2.166c-10.017-19.956-28.723-34.05-51.762-25.583-18.954,6.965-38.953,28.3-54.752,48.239-22.391,28.262.633,79.594,41.951,82.856C-394.861,107.245-343.517,142.991-324.979,127.489Z" transform="translate(-6671.626 -1682.605)" fill="#0ac668" fill-rule="evenodd"></path><g id="small-dots" transform="translate(-7076.752 -1716.991)"><path id="Oval" d="M-360.351-20.714a2.3,2.3,0,0,1,2-3.083c.671-.143.874.091,1.406.365A1.778,1.778,0,0,1-355.9-21.66c-.328,1.219-.1,2.013-1.5,2.312A2.745,2.745,0,0,1-360.351-20.714Z" transform="translate(360.459 32.14)" fill="#002c47" fill-rule="evenodd"></path><path id="Path_15504" data-name="Path 15504" d="M-369.629-28.148c-.135-.636-.162-1.295,1.637-1.677.67-.143.873.09,1.406.365.583.3,1.445,1.15,1.041,1.772-.5.771-.233,1.378-1.637,1.677S-369.494-27.512-369.629-28.148Z" transform="translate(376.027 34.25)" fill="#002c47" fill-rule="evenodd"></path><path id="Path_15505" data-name="Path 15505" d="M-361.9-34.374c-.289-1.362.25-1.951,1.464-2.209.452-.1.591.071.954.272a2.2,2.2,0,0,1,.888,1.709,1.5,1.5,0,0,1-1.167,1.2C-360.115-33.329-361.608-33.012-361.9-34.374Z" transform="translate(364.152 36.611)" fill="#002c47" fill-rule="evenodd"></path></g><path id="looper" d="M155.332,142.262c-41.081-21.448-59.793-81.89-45.495-103.988,4.414-6.821,15.45-17.548,27.3-13.648,8.907,2.932,11.448,17.619,5.661,23.307-3.984,3.916-12.5,5.464-17.508,5.788-8.538.551-17.127,1.093-25.663.51-5.788-.4-12.1-4.474-16.235-8.155-14.8-13.153-12.28-33.624-33.14-43.083A33.009,33.009,0,0,0,39.783.055C30.875-.771,10.4,7.727,0,18.776" transform="translate(-7147.569 -1696.72) rotate(-13)" fill="none" stroke="#002c47" stroke-width="2"></path></g></svg>