<svg xmlns="http://www.w3.org/2000/svg" id="Group_1022" data-name="Group 1022" width="40" height="40" viewBox="0 0 40 40"><path id="Path_306" data-name="Path 306" d="M276.757,263.984a12.814,12.814,0,0,0-7.026-11.41,17.426,17.426,0,0,1-17.157,17.157,12.779,12.779,0,0,0,17.909,5.25l6.218,1.72-1.72-6.218A12.724,12.724,0,0,0,276.757,263.984Z" transform="translate(-236.756 -236.756)" fill="#0ac668" opacity="0.6"></path><path id="Path_307" data-name="Path 307" d="M270.879,255.789a15.089,15.089,0,1,0-28.086,7.67l-2.037,7.364,7.364-2.037a15.092,15.092,0,0,0,22.758-13Zm-17.405-3.512h-2.314a4.631,4.631,0,1,1,7.755,3.417l-1.967,1.8V259.3h-2.316v-2.826l2.72-2.489a2.316,2.316,0,0,0-1.563-4.026A2.319,2.319,0,0,0,253.474,252.278Zm1.158,9.339h2.316v2.316h-2.316Z" transform="translate(-240.701 -240.701)" fill="#0ac668"></path></svg>