<svg xmlns="http://www.w3.org/2000/svg" width="14.081" height="12.673" viewBox="0 0 14.081 12.673"><path id="Path_15486" data-name="Path 15486" d="M9.04,5.816V3H2V15.673H16.081V5.816ZM4.816,14.265H3.408V12.857H4.816Zm0-2.816H3.408V10.04H4.816Zm0-2.816H3.408V7.224H4.816Zm0-2.816H3.408V4.408H4.816Zm2.816,8.449H6.224V12.857H7.632Zm0-2.816H6.224V10.04H7.632Zm0-2.816H6.224V7.224H7.632Zm0-2.816H6.224V4.408H7.632Zm7.04,8.449H9.04V12.857h1.408V11.449H9.04V10.04h1.408V8.632H9.04V7.224h5.632ZM13.265,8.632H11.857V10.04h1.408Zm0,2.816H11.857v1.408h1.408Z" transform="translate(-2 -3)" fill="#fff"></path></svg>