<svg xmlns="http://www.w3.org/2000/svg" width="13.125" height="13.125" viewBox="0 0 13.125 13.125"><path id="Path_15488" data-name="Path 15488" d="M10.292,7.375H8.833V8.833h1.458Zm2.917,0H11.75V8.833h1.458Zm2.188,4.74a8.284,8.284,0,0,1-2.6-.416.744.744,0,0,0-.744.175l-1.6,1.6A10.992,10.992,0,0,1,5.64,8.68l1.6-1.611a.716.716,0,0,0,.182-.736,8.284,8.284,0,0,1-.416-2.6A.731.731,0,0,0,6.281,3H3.729A.731.731,0,0,0,3,3.729a12.4,12.4,0,0,0,12.4,12.4.731.731,0,0,0,.729-.729V12.844A.731.731,0,0,0,15.4,12.115Zm-.729-4.74V8.833h1.458V7.375Z" transform="translate(-3 -3)" fill="#fff"></path></svg>