<svg xmlns="http://www.w3.org/2000/svg" width="52.086" height="62.991" viewBox="0 0 52.086 62.991"><g id="process_icon1" transform="translate(-487.136 -339.5)"><path id="Path_18623" data-name="Path 18623" d="M488.636,373.722V351.908L513.179,341l24.543,10.908v21.813c0,16.361-24.543,27.269-24.543,27.269S488.636,390.082,488.636,373.722Z" transform="translate(0 0)" fill="none" stroke="#0ac668" stroke-linecap="round" stroke-linejoin="round" stroke-width="3"></path><path id="Path_18624" data-name="Path 18624" d="M505.269,346.727h-5.452a5.453,5.453,0,0,0-5.453,5.456h0a5.453,5.453,0,0,0,5.453,5.452h0a5.453,5.453,0,0,1,5.452,5.453h0a5.453,5.453,0,0,1-5.452,5.456h-5.453" transform="translate(13.362 13.36)" fill="none" stroke="#0ac668" stroke-linecap="round" stroke-linejoin="round" stroke-width="3"></path><line id="Line_19" data-name="Line 19" y2="5.454" transform="translate(513.179 354.634)" fill="none" stroke="#0ac668" stroke-linecap="round" stroke-linejoin="round" stroke-width="3"></line><line id="Line_20" data-name="Line 20" y2="5.454" transform="translate(513.179 381.903)" fill="none" stroke="#0ac668" stroke-linecap="round" stroke-linejoin="round" stroke-width="3"></line></g></svg>