<svg xmlns="http://www.w3.org/2000/svg" width="67.286" height="63" viewBox="0 0 67.286 63">
  <g id="service_iocn3" transform="translate(17.643 15.5)">
    <path id="Path_18642" data-name="Path 18642" d="M48.143,11.714V-11.857A2.143,2.143,0,0,0,46-14H-14a2.143,2.143,0,0,0-2.143,2.143V26.714A2.143,2.143,0,0,0-14,28.857H5.286" fill="none" stroke="#0ac668" stroke-linejoin="round" stroke-width="3"/>
    <circle id="Ellipse_675" data-name="Ellipse 675" cx="10.714" cy="10.714" r="10.714" transform="translate(5.286 -3.286)" fill="none" stroke="#0ac668" stroke-linejoin="round" stroke-width="3"/>
    <line id="Line_41" data-name="Line 41" x2="4.286" transform="translate(-7.571 7.429)" fill="none" stroke="#0ac668" stroke-linejoin="round" stroke-width="3"/>
    <line id="Line_42" data-name="Line 42" x2="4.286" transform="translate(35.286 7.429)" fill="none" stroke="#0ac668" stroke-linejoin="round" stroke-width="3"/>
    <rect id="Rectangle_7520" data-name="Rectangle 7520" width="17.143" height="8.571" transform="translate(13.857 37.429)" fill="none" stroke="#0ac668" stroke-linejoin="round" stroke-width="3"/>
    <rect id="Rectangle_7521" data-name="Rectangle 7521" width="17.143" height="8.571" transform="translate(13.857 28.857)" fill="none" stroke="#0ac668" stroke-linejoin="round" stroke-width="3"/>
    <rect id="Rectangle_7522" data-name="Rectangle 7522" width="17.143" height="8.571" transform="translate(31 28.857)" fill="none" stroke="#0ac668" stroke-linejoin="round" stroke-width="3"/>
    <rect id="Rectangle_7523" data-name="Rectangle 7523" width="17.143" height="8.571" transform="translate(31 20.286)" fill="none" stroke="#0ac668" stroke-linejoin="round" stroke-width="3"/>
    <rect id="Rectangle_7524" data-name="Rectangle 7524" width="17.143" height="8.571" transform="translate(31 37.429)" fill="none" stroke="#0ac668" stroke-linejoin="round" stroke-width="3"/>
  </g>
</svg>
